<svg xmlns="http://www.w3.org/2000/svg" viewBox="0 0 318.5 29.5"><defs><style>.cls-1{fill:#eb5041;}.cls-2,.cls-3{fill:none;}.cls-2{stroke:#eb5041;}</style></defs><title>Asset 1</title><g id="Layer_2" data-name="Layer 2"><g id="Layer_1-2" data-name="Layer 1"><g id="Rectangle_31" data-name="Rectangle 31"><path class="cls-1" d="M2,25.5H38v4H2a2,2,0,0,1-2-2H0A2,2,0,0,1,2,25.5Z"/><path class="cls-2" d="M2,26H37.46a0,0,0,0,1,0,0V29a0,0,0,0,1,0,0H2A1.5,1.5,0,0,1,.5,27.5h0A1.5,1.5,0,0,1,2,26Z"/></g><g id="Rectangle_32" data-name="Rectangle 32"><path class="cls-3" d="M280,25.5h36a2,2,0,0,1,2,2h0a2,2,0,0,1-2,2H280v-4Z"/><path class="cls-2" d="M280.54,26H316a1.5,1.5,0,0,1,1.5,1.5h0A1.5,1.5,0,0,1,316,29H280.54a0,0,0,0,1,0,0h0V26A0,0,0,0,1,280.54,26Z"/></g><g id="Rectangle_33" data-name="Rectangle 33"><rect class="cls-1" x="40" y="25.5" width="38" height="4"/><rect class="cls-2" x="40.5" y="26" width="37" height="3"/></g><g id="Rectangle_34" data-name="Rectangle 34"><rect class="cls-3" x="80" y="25.5" width="38" height="4"/><rect class="cls-2" x="80.5" y="26" width="37" height="3"/></g><g id="Rectangle_35" data-name="Rectangle 35"><rect class="cls-3" x="120" y="25.5" width="38" height="4"/><rect class="cls-2" x="120.5" y="26" width="37" height="3"/></g><g id="Rectangle_36" data-name="Rectangle 36"><rect class="cls-3" x="160" y="25.5" width="38" height="4"/><rect class="cls-2" x="160.5" y="26" width="37" height="3"/></g><g id="Rectangle_37" data-name="Rectangle 37"><rect class="cls-3" x="200" y="25.5" width="38" height="4"/><rect class="cls-2" x="200.5" y="26" width="37" height="3"/></g><g id="Rectangle_38" data-name="Rectangle 38"><rect class="cls-3" x="240" y="25.5" width="38" height="4"/><rect class="cls-2" x="240.5" y="26" width="37" height="3"/></g><g id="maps-and-flags"><g id="Group_2" data-name="Group 2"><path id="Path_6" data-name="Path 6" class="cls-2" d="M310.76.5a7.25,7.25,0,0,0-7.25,7.24c0,5,6.49,12.24,6.76,12.54a.65.65,0,0,0,.92,0,.12.12,0,0,0,.05,0C311.52,20,318,12.7,318,7.74A7.24,7.24,0,0,0,310.76.5Zm0,10.89a3.65,3.65,0,1,1,3.64-3.65h0A3.66,3.66,0,0,1,310.76,11.39Z"/></g></g><g id="maps-and-flags-2"><g id="Group_2-2" data-name="Group 2-2"><path id="Path_6-2" data-name="Path 6-2" class="cls-1" d="M7.24.5A7.24,7.24,0,0,0,0,7.74C0,12.7,6.48,20,6.76,20.28a.65.65,0,0,0,.92,0s0,0,.05,0C8,20,14.49,12.7,14.49,7.74A7.25,7.25,0,0,0,7.24.5Zm0,10.89a3.65,3.65,0,1,1,3.65-3.65h0A3.67,3.67,0,0,1,7.24,11.39Z"/></g></g><g id="maps-and-flags-3"><g id="Group_2-3" data-name="Group 2-3"><path id="Path_6-3" data-name="Path 6-3" class="cls-2" d="M159,.5a7.24,7.24,0,0,0-7.24,7.24c0,5,6.48,12.24,6.75,12.54a.65.65,0,0,0,.92,0l.06,0c.27-.3,6.75-7.58,6.75-12.54A7.24,7.24,0,0,0,159,.5Zm0,10.89a3.65,3.65,0,1,1,3.64-3.65h0A3.66,3.66,0,0,1,159,11.39Z"/></g></g></g></g></svg>