<?xml version="1.0" encoding="utf-8"?>
<!-- Generator: Adobe Illustrator 23.1.0, SVG Export Plug-In . SVG Version: 6.00 Build 0)  -->
<svg version="1.1" id="Layer_1" xmlns="http://www.w3.org/2000/svg" xmlns:xlink="http://www.w3.org/1999/xlink" x="0px" y="0px"
	 viewBox="0 0 318.5 29.5" style="enable-background:new 0 0 318.5 29.5;" xml:space="preserve">
<style type="text/css">
	.st0{fill:#EB5041;}
	.st1{fill:none;}
	.st2{fill:none;stroke:#EB5041;}
</style>
<title>Asset 1</title>
<g id="1">
	<path class="st0" d="M2,25.5h45.5v4.1H2c-1.4,0-2.5-0.9-2.5-2l0,0C-0.5,26.4,0.6,25.5,2,25.5z"/>
	<path class="st0" d="M2,26h44.8l0,0v3l0,0H2c-1,0-1.9-0.7-1.9-1.5l0,0l0,0C0.1,26.7,1,26,2,26z"/>
</g>
<g id="6">
	<path class="st1" d="M270.9,25.5h45.5c1.4,0,2.5,0.9,2.5,2l0,0c0,1.1-1.1,2-2.5,2h-45.5V25.5z"/>
	<path class="st2" d="M271.6,26h44.8c1,0,1.9,0.7,1.9,1.5l0,0c0,0.8-0.8,1.5-1.9,1.5l0,0h-44.8l0,0l0,0V26L271.6,26z"/>
</g>
<g id="2">
	<rect x="53.8" y="25.5" class="st1" width="48" height="4.1"/>
	<rect x="54.4" y="26" class="st2" width="46.7" height="3"/>
</g>
<g id="3">
	<rect x="108.1" y="25.5" class="st1" width="48" height="4.1"/>
	<rect x="108.7" y="26" class="st2" width="46.7" height="3"/>
</g>
<g id="4">
	<rect x="162.3" y="25.5" class="st1" width="48" height="4.1"/>
	<rect x="163" y="26" class="st2" width="46.7" height="3"/>
</g>
<g id="5">
	<rect x="216.6" y="25.5" class="st1" width="48" height="4.1"/>
	<rect x="217.3" y="26" class="st2" width="46.7" height="3"/>
</g>
<g id="begin">
	<g id="Group_2">
		<path id="Path_6" class="st2" d="M310.8,0.5c-4,0-7.2,3.2-7.3,7.2c0,5,6.5,12.2,6.8,12.5c0.3,0.3,0.7,0.3,0.9,0c0,0,0,0,0,0
			c0,0,0,0,0,0c0.3-0.3,6.8-7.6,6.8-12.5C318,3.7,314.8,0.5,310.8,0.5z M310.8,11.4c-2,0-3.7-1.6-3.7-3.6s1.6-3.7,3.6-3.7
			c2,0,3.7,1.6,3.7,3.6c0,0,0,0,0,0l0,0C314.4,9.7,312.8,11.4,310.8,11.4z"/>
	</g>
</g>
<g id="midway">
	<g id="Group_2-2">
		<path id="Path_6-2" class="st0" d="M7.2,0.5C3.2,0.5,0,3.7,0,7.7c0,0,0,0,0,0c0,5,6.5,12.3,6.8,12.5c0.3,0.3,0.7,0.3,0.9,0
			c0,0,0,0,0,0c0,0,0,0,0.1,0C8,20,14.5,12.7,14.5,7.7C14.5,3.7,11.2,0.5,7.2,0.5z M7.2,11.4c-2,0-3.7-1.6-3.7-3.7s1.6-3.7,3.6-3.7
			c2,0,3.7,1.6,3.7,3.6c0,0,0,0,0,0l0,0C10.9,9.8,9.3,11.4,7.2,11.4z"/>
	</g>
</g>
<g id="end">
	<g id="Group_2-3">
		<path id="Path_6-3" class="st2" d="M159,0.5c-4,0-7.2,3.2-7.2,7.2c0,0,0,0,0,0c0,5,6.5,12.2,6.8,12.5c0.3,0.3,0.7,0.3,0.9,0
			c0,0,0,0,0,0h0.1c0.3-0.3,6.8-7.6,6.8-12.5C166.2,3.7,163,0.5,159,0.5z M159,11.4c-2,0-3.7-1.6-3.7-3.6s1.6-3.7,3.6-3.7
			c2,0,3.7,1.6,3.7,3.6c0,0,0,0,0,0l0,0C162.6,9.7,161,11.4,159,11.4z"/>
	</g>
</g>
</svg>
